<svg width="24" xmlns="http://www.w3.org/2000/svg" height="24" id="screenshot-1da55962-bd5f-80bb-8007-a90aa7cbecac" viewBox="0 0 24 24" xmlns:xlink="http://www.w3.org/1999/xlink" fill="none" version="1.1"><g id="shape-1da55962-bd5f-80bb-8007-a90aa7cbecac"><g class="frame-container-wrapper"><g class="frame-container-blur"><g class="frame-container-shadows"><g fill="none"><g class="fills" id="fills-1da55962-bd5f-80bb-8007-a90aa7cbecac"><rect rx="0" ry="0" x="0" y="0" width="24" height="24" transform="matrix(1.000000, 0.000000, 0.000000, 1.000000, 0.000000, 0.000000)" class="frame-background"/></g><g class="frame-children"><g id="shape-a48856a2-831a-80b3-8007-a934435ae61d" width="800" height="800" rx="0" ry="0" style="fill: rgb(0, 0, 0);"><g id="shape-a48856a2-831a-80b3-8007-a934435b1a8d" style="display: none;"><g class="fills" id="fills-a48856a2-831a-80b3-8007-a934435b1a8d"><rect width="23" height="23" x="0.5" transform="matrix(1.000000, 0.000000, 0.000000, 1.000000, 0.000000, 0.000000)" style="fill: none;" ry="0" fill="none" rx="0" y="0.5000000000000568"/></g></g><g id="shape-a48856a2-831a-80b3-8007-a934435b1a8e"><g class="fills" id="fills-a48856a2-831a-80b3-8007-a934435b1a8e"><path d="M22.0625,12C22.0625,6.44268798828125,17.557373046875,1.9375,12,1.9375C6.74493408203125,1.932586669921875,2.37103271484375,5.972412109375,1.95916748046875,11.211334228515625C1.54730224609375,16.45025634765625,5.236083984375,21.123870849609375,10.4273681640625,21.94036865234375L10.4273681640625,14.9080810546875L7.8743896484375,14.9080810546875L7.8743896484375,12L10.42877197265625,12L10.42877197265625,9.78338623046875C10.42877197265625,7.261962890625,11.93096923828125,5.867645263671875,14.22955322265625,5.867645263671875C15.330718994140625,5.867645263671875,16.482086181640625,6.06451416015625,16.482086181640625,6.06451416015625L16.482086181640625,8.5413818359375L15.212799072265625,8.5413818359375C13.962158203125,8.5413818359375,13.574066162109375,9.31768798828125,13.574066162109375,10.112579345703125L13.574066162109375,12L16.3642578125,12L15.91864013671875,14.9080810546875L13.5726318359375,14.9080810546875L13.5726318359375,21.94036865234375C18.462249755859375,21.165985107421875,22.062591552734375,16.950531005859375,22.0625,12Z" style="fill: rgb(24, 119, 242);"/></g></g><g id="shape-a48856a2-831a-80b3-8007-a934435b1a8f"><g class="fills" id="fills-a48856a2-831a-80b3-8007-a934435b1a8f"><path d="M15.917205810546875,14.9080810546875L16.36279296875,12L13.5726318359375,12L13.5726318359375,10.112579345703125C13.5726318359375,9.31768798828125,13.96075439453125,8.5413818359375,15.211395263671875,8.5413818359375L16.480682373046875,8.5413818359375L16.480682373046875,6.0631103515625C16.480682373046875,6.0631103515625,15.329254150390625,5.866241455078125,14.228118896484375,5.866241455078125C11.928131103515625,5.866241455078125,10.4273681640625,7.26055908203125,10.4273681640625,9.781982421875L10.4273681640625,12L7.8743896484375,12L7.8743896484375,14.9080810546875L10.42877197265625,14.9080810546875L10.42877197265625,21.94036865234375C11.4708251953125,22.104248046875,12.53204345703125,22.104248046875,13.574066162109375,21.94036865234375L13.574066162109375,14.9080810546875L15.917205810546875,14.9080810546875Z" style="fill: rgb(255, 255, 255);"/></g></g></g></g></g></g></g></g></g></svg>