<svg width="24" xmlns="http://www.w3.org/2000/svg" height="24" id="screenshot-1da55962-bd5f-80bb-8007-a90ab9de5aae" viewBox="0 0 24 24" xmlns:xlink="http://www.w3.org/1999/xlink" fill="none" version="1.1"><g id="shape-1da55962-bd5f-80bb-8007-a90ab9de5aae"><defs><clipPath id="frame-clip-1da55962-bd5f-80bb-8007-a90ab9de5aae-render-1" class="frame-clip frame-clip-def"><rect rx="0" ry="0" x="0" y="0" width="24" height="24" transform="matrix(1.000000, 0.000000, 0.000000, 1.000000, 0.000000, 0.000000)"/></clipPath></defs><g class="frame-container-wrapper"><g class="frame-container-blur"><g class="frame-container-shadows"><g clip-path="url(#frame-clip-1da55962-bd5f-80bb-8007-a90ab9de5aae-render-1)" fill="none"><g class="fills" id="fills-1da55962-bd5f-80bb-8007-a90ab9de5aae"><rect rx="0" ry="0" x="0" y="0" width="24" height="24" transform="matrix(1.000000, 0.000000, 0.000000, 1.000000, 0.000000, 0.000000)" class="frame-background"/></g><g class="frame-children"><g id="shape-a48856a2-831a-80b3-8007-a9344e46bdb3" width="800" height="800" rx="0" ry="0" style="fill: rgb(0, 0, 0);"><g id="shape-a48856a2-831a-80b3-8007-a9344e46bdb4" style="display: none;"><g class="fills" id="fills-a48856a2-831a-80b3-8007-a9344e46bdb4"><rect width="23" height="23" x="0.5" transform="matrix(1.000000, 0.000000, 0.000000, 1.000000, 0.000000, 0.000000)" style="fill: none;" ry="0" fill="none" rx="0" y="0.5000000000000568"/></g></g><g id="shape-a48856a2-831a-80b3-8007-a9344e46bdb5"><g class="fills" id="fills-a48856a2-831a-80b3-8007-a9344e46bdb5"><path d="M12,1.9375C6.441162109375,1.9375,1.9375,6.4368896484375,1.9375,11.989959716796875C1.9375,16.43182373046875,4.82110595703125,20.19805908203125,8.81878662109375,21.527740478515625C9.32196044921875,21.6197509765625,9.5059814453125,21.309234619140625,9.5059814453125,21.0433349609375C9.5059814453125,20.8046875,9.497314453125,20.172149658203125,9.4915771484375,19.332672119140625C6.6927490234375,19.940765380859375,6.1033935546875,17.985748291015625,6.1033935546875,17.985748291015625C5.64483642578125,16.82427978515625,4.9849853515625,16.51513671875,4.9849853515625,16.51513671875C4.0721435546875,15.89129638671875,5.05401611328125,15.90423583984375,5.05401611328125,15.90423583984375C6.0645751953125,15.97607421875,6.596435546875,16.939208984375,6.596435546875,16.939208984375C7.493438720703125,18.477386474609375,8.9510498046875,18.031768798828125,9.524627685546875,17.775848388671875C9.61517333984375,17.12615966796875,9.8753662109375,16.683349609375,10.162872314453125,16.43182373046875C7.92901611328125,16.178863525390625,5.58013916015625,15.3162841796875,5.58013916015625,11.463836669921875C5.58013916015625,10.367034912109375,5.97259521484375,9.468597412109375,6.6151123046875,8.76708984375C6.51165771484375,8.512664794921875,6.1666259765625,7.490570068359375,6.71575927734375,6.10772705078125C6.71575927734375,6.10772705078125,7.558135986328125,5.83599853515625,9.481475830078125,7.136962890625C10.302337646484375,6.91326904296875,11.149200439453125,6.799224853515625,12,6.797698974609375C12.8553466796875,6.801971435546875,13.71636962890625,6.912689208984375,14.519927978515625,7.136962890625C16.4404296875,5.83599853515625,17.28424072265625,6.10626220703125,17.28424072265625,6.10626220703125C17.8333740234375,7.490570068359375,17.48834228515625,8.512664794921875,17.3848876953125,8.765625C18.02886962890625,9.470001220703125,18.41986083984375,10.367034912109375,18.41986083984375,11.463836669921875C18.41986083984375,15.32489013671875,16.06524658203125,16.175933837890625,13.82415771484375,16.423187255859375C14.185028076171875,16.73370361328125,14.50701904296875,17.347503662109375,14.50701904296875,18.286163330078125C14.50701904296875,19.6287841796875,14.4940185546875,20.712646484375,14.4940185546875,21.0433349609375C14.4940185546875,21.31207275390625,14.676605224609375,21.62408447265625,15.18695068359375,21.526336669921875C19.2916259765625,20.157623291015625,22.060806274414062,16.31683349609375,22.0625,11.989959716796875C22.059356689453125,6.435516357421875,17.554412841796875,1.93511962890625,12,1.9375Z" fill-rule="evenodd" clip-rule="evenodd" style="fill: rgb(255, 255, 255);"/></g></g></g></g></g></g></g></g></g></svg>