<svg width="24" xmlns="http://www.w3.org/2000/svg" height="24" id="screenshot-1da55962-bd5f-80bb-8007-a90ab776612d" viewBox="0 0 24 24" xmlns:xlink="http://www.w3.org/1999/xlink" fill="none" version="1.1"><g id="shape-1da55962-bd5f-80bb-8007-a90ab776612d"><defs><clipPath id="frame-clip-1da55962-bd5f-80bb-8007-a90ab776612d-render-1" class="frame-clip frame-clip-def"><rect rx="0" ry="0" x="0" y="0" width="24" height="24" transform="matrix(1.000000, 0.000000, 0.000000, 1.000000, 0.000000, 0.000000)"/></clipPath></defs><g class="frame-container-wrapper"><g class="frame-container-blur"><g class="frame-container-shadows"><g clip-path="url(#frame-clip-1da55962-bd5f-80bb-8007-a90ab776612d-render-1)" fill="none"><g class="fills" id="fills-1da55962-bd5f-80bb-8007-a90ab776612d"><rect rx="0" ry="0" x="0" y="0" width="24" height="24" transform="matrix(1.000000, 0.000000, 0.000000, 1.000000, 0.000000, 0.000000)" class="frame-background"/></g><g class="frame-children"><g id="shape-a48856a2-831a-80b3-8007-a9342f1ac208" width="800" height="800" rx="0" ry="0" style="fill: rgb(0, 0, 0);"><g id="shape-a48856a2-831a-80b3-8007-a9342f1ac209" style="display: none;"><g class="fills" id="fills-a48856a2-831a-80b3-8007-a9342f1ac209"><rect width="23" height="23" x="0.5" transform="matrix(1.000000, 0.000000, 0.000000, 1.000000, 0.000000, 0.000000)" style="fill: none;" ry="0" fill="none" rx="0" y="0.5000000000000568"/></g></g><g id="shape-a48856a2-831a-80b3-8007-a9342f1ac20a"><g class="fills" id="fills-a48856a2-831a-80b3-8007-a9342f1ac20a"><rect rx="10.0625" ry="10.0625" x="1.9375" y="1.9375000000000568" transform="matrix(1.000000, 0.000000, 0.000000, 1.000000, 0.000000, 0.000000)" width="20.125" height="20.125" style="fill: rgb(18, 117, 177);"/></g></g><g id="shape-a48856a2-831a-80b3-8007-a9342f1ac20b"><g class="fills" id="fills-a48856a2-831a-80b3-8007-a9342f1ac20b"><path d="M9.569610595703125,7.466217041015625C9.569610595703125,8.137939453125,8.98736572265625,8.68243408203125,8.2691650390625,8.68243408203125C7.55096435546875,8.68243408203125,6.96875,8.137939453125,6.96875,7.466217041015625C6.96875,6.79449462890625,7.55096435546875,6.25,8.2691650390625,6.25C8.98736572265625,6.25,9.569610595703125,6.79449462890625,9.569610595703125,7.466217041015625Z" style="fill: rgb(255, 255, 255);"/></g></g><g id="shape-a48856a2-831a-80b3-8007-a9342f1ac20c"><g class="fills" id="fills-a48856a2-831a-80b3-8007-a9342f1ac20c"><path d="M7.1466064453125,9.576446533203125L9.3695068359375,9.576446533203125L9.3695068359375,16.3125L7.1466064453125,16.3125L7.1466064453125,9.576446533203125Z" style="fill: rgb(255, 255, 255);"/></g></g><g id="shape-a48856a2-831a-80b3-8007-a9342f1ac20d"><g class="fills" id="fills-a48856a2-831a-80b3-8007-a9342f1ac20d"><path d="M12.948455810546875,9.576446533203125L10.72552490234375,9.576446533203125L10.72552490234375,16.3125L12.948455810546875,16.3125C12.948455810546875,16.3125,12.948455810546875,14.191864013671875,12.948455810546875,12.86602783203125C12.948455810546875,12.07012939453125,13.22021484375,11.27081298828125,14.304473876953125,11.27081298828125C15.52978515625,11.27081298828125,15.5224609375,12.312286376953125,15.516693115234375,13.11920166015625C15.50921630859375,14.173797607421875,15.52703857421875,15.2501220703125,15.52703857421875,16.3125L17.75,16.3125L17.75,12.757354736328125C17.731201171875,10.4873046875,17.1396484375,9.4412841796875,15.193603515625,9.4412841796875C14.037933349609375,9.4412841796875,13.321533203125,9.96600341796875,12.948455810546875,10.440673828125L12.948455810546875,9.576446533203125Z" style="fill: rgb(255, 255, 255);"/></g></g></g></g></g></g></g></g></g></svg>